<svg xmlns="http://www.w3.org/2000/svg" width="316mm" height="197mm" viewBox="0 0 316 197"><path d="M91.315 180.277v-16.116l3.673.117 3.674.117 4.045 9.646c2.225 5.305 4.148 9.748 4.274 9.874.127.127.23-3.712.23-8.53 0-7.045-.122-8.998-.63-9.978l-.63-1.218h4.394c4.385 0 4.393 0 4.044.929-.454 1.202-.473 29.119 0 30.362l.341.945-3.808-.118-3.806-.117-4.054-9.444c-2.229-5.195-4.16-9.553-4.292-9.684-.37-.371 0 17.353.375 18.405.337.924.317.93-3.734.93h-4.074v-16.116zm26.017 15.393c.855-2.048 1.235-3.799 3.48-15.998 1.336-7.267 2.33-13.723 2.21-14.348l-.22-1.135h11.714l-.317.929c-.176.51-.297 1.3-.273 1.754.082 1.713 5.088 27.117 5.486 27.862.822 1.536.533 1.659-3.908 1.659h-4.324l.243-1.227c.137-.674.117-2.253-.049-3.509l-.282-2.283h-2.424c-1.332 0-2.547.2-2.699.449-.15.244-.297 1.825-.321 3.51l-.05 3.062h-4.287c-3.922 0-4.261-.063-3.985-.723zm12.579-12.592c0-.283-.278-2.281-.612-4.439a547.621 547.621 0 0 1-.657-4.335c-.049-.23-.38 1.631-.785 4.129-.405 2.498-.65 4.68-.55 4.85.312.53 2.612.347 2.604-.204zm17.2 12.592c.195-.4.405-6.343.468-13.212l.118-12.49h-2.63c-1.447 0-3.533.274-4.637.605-1.104.332-2.043.565-2.086.517-.05-.05.214-1.624.576-3.501l.656-3.413 11.567.113 11.567.107.514 2.477c.283 1.363.523 2.877.533 3.366 0 .866-.049.874-1.906.307-1.057-.317-3.106-.579-4.553-.579h-2.63l.118 12.49c.063 6.869.273 12.814.468 13.212.326.665 0 .722-4.07.722-4.073 0-4.395-.059-4.07-.722zm19.885-14.537c.087-10.466 0-15.525-.321-16.102-.44-.823-.352-.842 3.943-.842 4.044 0 4.366.059 4.04.723-.453.922-.468 29.312 0 30.552.337.923.312.929-3.716.93h-4.053l.127-15.261zm13.562 12.813l-2.334-2.446v-22.54l2.361-2.386 2.361-2.386h10.374l2.36 2.386 2.362 2.386v22.581l-2.58 2.407-2.581 2.407h-9.99l-2.333-2.446zm9.922-4.644c.937-.88.956-1.058.956-9.154 0-9.435-.103-9.766-3.025-9.766-3.098 0-3.168.22-3.168 9.837 0 7.303.093 8.575.683 9.226.963 1.063 3.35.989 4.554-.142zm10.734 6.162c.185-.511.336-7.757.336-16.102v-15.174h7.052l4.21 10.013 4.21 10.012-.099-9.29c-.054-5.109-.258-9.614-.453-10.011-.327-.666 0-.723 4.004-.723h4.357l-.41 1.179c-.253.725-.365 6.926-.287 16.102l.122 14.923h-7.092l-4.092-9.584-4.092-9.584-.112 8.436c-.063 4.707.063 8.943.287 9.584l.4 1.148h-4.341c-4.327 0-4.34 0-4.004-.93zM.773 179.93l.121-1.45 3.303-.738c21.824-4.874 49.502-9.534 71.53-12.044l8.36-.953v2.818c0 2.408-.107 2.818-.722 2.818-1.353 0-18.034 1.665-27.146 2.71-11.95 1.368-32.112 4.273-45.126 6.501l-10.446 1.79zm308.124.493c-19.36-3.21-42.818-6.315-63.27-8.373-6.867-.69-12.766-1.256-13.108-1.256-.494 0-.622-.588-.622-2.864v-2.864l1.342.185c.738.103 5.336.66 10.218 1.239 18.478 2.193 38.19 5.351 58.008 9.294 6.813 1.355 12.712 2.564 13.11 2.687.726.224 1.056 2.426.414 2.753-.171.087-2.911-.273-6.09-.801zM.527 161.744c.42-2.934.19-68.582-.243-70.985l-.327-1.798 1.297.264c1.995.405 24.726 4.364 25.045 4.364.156 0 2.075 2.243 4.266 4.984l3.983 4.984v17.464l-2.272 2.296-2.272 2.296 2.272 2.243 2.272 2.244v20.114l-3.75 4.614c-2.064 2.538-4.154 4.748-4.646 4.912-.491.166-6.532 1.2-13.422 2.303L.202 164.048zm18.734-13.62c1.046-.2 1.819-.778 2.842-2.118l1.405-1.841-.268-4.457c-.22-3.61-.444-4.728-1.19-5.882-.507-.783-1.149-1.34-1.427-1.236-.278.102-2.183 1.53-4.232 3.17l-3.726 2.984V148.9l2.58-.249c1.42-.136 3.227-.375 4.018-.526zm-1.114-28.082l4.838-3.48v-3.767c0-3.537-.078-3.871-1.239-5.452-1.218-1.657-1.29-1.69-4.438-1.965-1.76-.156-3.525-.376-3.922-.49-.674-.195-.723.444-.723 9.35 0 5.257.146 9.497.322 9.421.176-.078 2.5-1.703 5.16-3.617zm289.924 43.5c-1.816-.307-9.062-1.43-16.102-2.489-7.04-1.059-12.846-1.964-12.903-2.01-.059-.05.268-1.167.723-2.49.794-2.308.827-3.466.827-29.55 0-25.255-.054-27.32-.765-29.602l-.763-2.455 14.285-2.358c7.857-1.297 14.662-2.448 15.122-2.558.79-.19.897.234 1.928 7.56.6 4.27 1.04 7.813.979 7.875-.063.063-1.617-.249-3.456-.685-3.217-.769-3.576-.774-9.556-.132l-6.214.667v14.078l5.471-.234c4.402-.186 5.835-.405 7.33-1.116l1.857-.883.113 8.298c.063 4.564.054 8.358 0 8.431-.073.073-1.239-.322-2.59-.876-2.119-.87-3.12-1.01-7.307-1.02h-4.853v16.009l1.755.24c7.352 1.008 16.214 1.593 17.988 1.187 1.063-.244 2.011-.36 2.107-.268.185.185-1.119 12.504-1.492 14.104-.244 1.05-.049 1.037-4.462.283zm-271.874-5.268c0-.122.453-1.304 1.013-2.625.67-1.592 1.44-5.185 2.282-10.659.698-4.54 2.595-16.312 4.215-26.157 2.75-16.715 2.91-18.036 2.421-19.945-.288-1.125-.42-2.153-.288-2.283.205-.205 16.523 1.651 19.132 2.174.868.175.881.243.312 1.61-.327.787-.597 1.89-.597 2.452s1.122 7.024 2.493 14.36c5.053 27.035 6.232 32.674 7.257 34.697.55 1.083.856 1.98.682 1.994-.176 0-3.476.356-7.336.765-3.86.405-7.1.67-7.201.584-.103-.087-.005-1.034.214-2.107.269-1.334.24-2.994-.097-5.253-.268-1.817-.506-3.562-.523-3.879-.05-.473-.787-.523-4.254-.282-2.323.16-4.285.35-4.36.429-.073.073-.346 1.914-.598 4.086-.336 2.875-.341 4.487 0 5.925.268 1.172.298 2.07.073 2.208-.205.127-3.21.563-6.675.967-3.463.405-6.715.831-7.226.95-.511.118-.93.118-.93 0zm21.851-26.805c0-.51-.544-4.366-1.172-8.567-1.275-8.527-1.169-8.587-2.511 1.427-1.164 8.685-1.274 8.07 1.443 8.07 2.089 0 2.268-.074 2.24-.93zm169.304 24.05l-2.688-2.392-8.674-.587-8.675-.586-3.8-3.894-3.8-3.895V109.88l3.829-3.813 3.828-3.812 8.041-.612c4.423-.336 8.456-.614 8.963-.617.583 0 2.366 1.3 4.851 3.55l3.93 3.556v38.388l2.088 2.5c1.678 2.006 1.982 2.593 1.549 2.978-.298.263-1.934 1.702-3.637 3.196l-3.096 2.717-2.687-2.393zm-6.918-14.004l1.348-1.205-.137-13.555-.136-13.555-.97-.996c-.86-.881-1.29-.984-3.785-.905-2.536.078-2.947.214-4.156 1.385l-1.342 1.297v26.015l1.32 1.362c1.217 1.256 1.52 1.361 3.915 1.361 2.286 0 2.758-.146 3.945-1.204zm34.652 14.664l-7.57-.882-3.87-4.328-3.87-4.327v-21.3c0-17.47-.128-21.662-.622-23.308-.331-1.104-.564-2.043-.516-2.085.122-.108 12.307-1.408 13.178-1.407.648 0 .656.141.103 1.704-.494 1.401-.6 5.262-.6 21.786v20.083l1.007 1.483c.764 1.125 1.387 1.546 2.58 1.743 3.321.549 4.037.37 5.417-1.347l1.3-1.617-.24-20.575c-.18-15.349-.38-21.074-.794-22.537-.42-1.488-.434-1.961-.06-1.962.274 0 3.36-.37 6.865-.82 3.503-.454 6.453-.738 6.555-.635.103.103 0 1.018-.278 2.036-.322 1.271-.468 9.562-.468 26.488v24.639l-3.761 4.08c-4.38 4.75-2.87 4.425-14.337 3.088zM79.38 151.672c.513-1.506.587-5.485.473-25.701-.073-13.156-.293-24.363-.489-24.904-.35-.965-.317-.98 1.461-.73 1 .14 6.927.644 13.171 1.12l11.355.868 1.445 1.302a242.43 242.43 0 0 1 3.819 3.567l2.374 2.264v18.172l-2.952 2.972-2.95 2.97 3.605 6.741c2.328 4.355 4.263 7.417 5.464 8.65l1.86 1.91-1.791.238c-.985.132-4.744.366-8.352.518l-6.56.278.282-1.188c.156-.653.361-1.467.459-1.807.093-.342-1.274-3.685-3.041-7.432l-3.213-6.813h-3.94l.053 7.206c.049 6 .18 7.492.81 8.912l.754 1.706-6.45.483c-9.179.685-8.373.822-7.649-1.302zm21.268-27.979l1.608-1.274v-8.433l-1.548-1.497c-1.52-1.47-1.62-1.5-5.264-1.62l-3.716-.121-.112 6.576c-.063 3.617 0 6.816.088 7.109.146.38 1.239.533 3.77.533 3.361 0 3.658-.073 5.174-1.273zm21.065 25.576c.482-2.253.268-43.922-.235-45.304l-.35-.977 2.847.244c1.567.131 7.607.36 13.423.506l10.576.263 3.753 2.948 3.752 2.949v3.344c0 1.839.136 4.736.283 6.44l.263 3.094-2.321 1.612c-1.277.887-2.323 1.729-2.326 1.871 0 .142 1.017.963 2.266 1.823l2.27 1.564v14.52l-4.153 3.2-4.154 3.2h-8.531c-4.692 0-10.604.122-13.138.268l-4.608.263.39-1.83zm21.233-8.51c1.395-1.114 1.423-1.196 1.423-4.248 0-2.8-.113-3.244-1.136-4.43l-1.135-1.318-4.232 2.296-4.232 2.296v2.994c0 1.647.122 3.118.273 3.27.151.151 1.926.273 3.944.273 3.383 0 3.78-.087 5.092-1.135zm1.423-23.185c0-2.266-.098-2.518-1.46-3.713-1.412-1.24-1.584-1.28-5.367-1.28h-3.908v12.804l5.367-2.69 5.368-2.689zm26.766 33.004c-5.828-.122-10.719-.342-10.868-.492-.146-.15 0-.836.38-1.528.973-1.88.978-40.459 0-42.784-.355-.848-.585-1.59-.515-1.65.136-.118 29.781-.936 29.958-.827.239.15 2.249 9.752 2.074 9.926-.107.108-1.572-.093-3.26-.444-2.18-.453-4.922-.601-9.458-.52l-6.388.112v9.497l4.85.117c3.311.078 5.599-.078 7.208-.5 1.297-.336 2.422-.55 2.502-.473.078.078.253 2.513.395 5.407l.248 5.264-1.407-.298c-.774-.166-4.24-.39-7.704-.506l-6.296-.21v10.697l1.916.263c2.859.39 17.045.297 18.867-.127 1.492-.346 1.572-.317 1.38.526-.113.491-.523 2.705-.911 4.92l-.706 4.025-5.834-.09c-3.21-.048-10.604-.19-16.433-.306zM129.092 90.52v-2.935l4.232-.925c9.109-1.992 12.393-2.316 23.637-2.334 11.366 0 16.105.448 24.331 2.405l3.744.89.122 2.92.122 2.921-3.491-.757c-7.489-1.624-11.736-2.08-21.369-2.3-10.705-.243-17.894.327-26.68 2.108l-4.644.943zm-19.817 1.807C71.22 89.23 29.142 83.28 2.858 77.278l-2.994-.684v-1.412c0-.776.059-1.412.127-1.412s2.086.361 4.48.8c24.857 4.567 75.351 10.261 106.455 12.005 4.428.249 8.655.543 9.393.654l1.342.205v5.743l-1.549-.05c-.85-.048-5.728-.385-10.837-.802zm83.4-2.023v-2.871l1.341-.205c.738-.113 4.965-.405 9.393-.655 22.156-1.242 59.093-4.947 82.78-8.303 8.612-1.22 25.574-3.926 27.353-4.363.83-.204.929-.073.929 1.23v1.456l-2.993.684c-21.13 4.825-55.341 10.061-86.187 13.19-8.638.876-30.312 2.707-32.053 2.707-.424 0-.563-.722-.563-2.872zm-63.735-7.967c-.92-10.893-1.23-13.503-2.15-18.062-1.966-9.76-5.226-17.95-10.022-25.186-2.186-3.296-10.31-11.973-11.21-11.973-.225 0-.41-.214-.41-.473 0-.547 5.576-.195 8.66.543 4.685 1.125 9.447 4.294 11.974 7.968l1.208 1.755-2.242 1.606c-1.233.883-2.246 1.725-2.25 1.871-.05.74 3.964 4.534 5.596 5.324 2.414 1.169 5.999 1.01 7.907-.35 1.761-1.254 3.002-3.98 3.002-6.595 0-4.145-3.11-10.2-7.253-14.119l-2.303-2.177 2.41.175c3.021.22 6.004 1.634 7.457 3.54l1.114 1.46-1.323 1.021-1.324 1.021 1.32 1.838c3.37 4.694 7.62 7.413 10.993 7.032 3.24-.365 5.84-3.995 5.829-8.138 0-1.748-.313-2.273-1.567-2.664-1.405-.44-3.614-2.514-4.211-3.958-.454-1.091-.283-2.714 1.29-12.278l1.812-11.02.205 10.042.205 10.042 1.158.996c1.625 1.397 3.261 1.299 4.585-.273l1.07-1.27.048-9.98.05-9.981 1.788 10.322c.984 5.676 1.8 10.95 1.814 11.718.049 1.933-1.386 4.039-3.422 5.071-2.08 1.054-2.318 1.386-2.324 3.235 0 2.44.814 4.57 2.426 6.298 1.31 1.404 1.852 1.682 3.607 1.851 2.832.273 5.465-1.118 8.729-4.607 3.546-3.79 3.679-4.11 2.157-5.194-.681-.488-1.238-1.033-1.238-1.218 0-.186.75-1.086 1.666-2.003 1.85-1.85 4.58-2.972 7.23-2.972h1.73l-2.736 2.787c-5.566 5.667-7.983 12.782-5.844 17.2 1.245 2.572 2.9 3.67 5.851 3.883 3.073.225 5.436-.877 7.99-3.716 1.026-1.142 1.862-2.196 1.857-2.342 0-.146-1.018-.988-2.251-1.871l-2.242-1.606 1.208-1.755c2.487-3.615 6.879-6.651 11.278-7.797 3.296-.859 9.356-1.319 9.356-.71 0 .258-.185.467-.41.467-.919 0-9.05 8.673-11.224 11.973-7.407 11.242-10.52 22.188-12.133 42.667-.239 3.065-.302 3.225-1.145 2.993-2.784-.768-9.451-1.955-14.308-2.548-10.459-1.277-28.017-.395-37.159 1.864-3.997.988-3.624 1.155-3.868-1.728zm18.728-8.381c4.065-.586 4.426-.718 5.883-2.14l1.552-1.516v-4.022c0-3.671-.078-4.076-.905-4.655l-.906-.635.906-.964c.786-.837.904-1.424.898-4.447v-3.482l-1.684-1.4-1.685-1.398-3.365.483c-1.852.263-4.387.712-5.634.995l-2.267.514-.146 11.921-.146 11.921 1.586-.273c.872-.15 3.534-.555 5.917-.899zm-2.06-5.878c0-1.456.21-1.838 1.659-2.984 2.176-1.724 2.882-1.434 2.882 1.181 0 2.349-.405 2.811-2.808 3.195l-1.734.278zm0-10.184v-3.078l1.512-.283c1.948-.366 2.792.19 2.944 1.94.108 1.262-.087 1.563-1.95 2.952-1.14.851-2.17 1.547-2.29 1.547-.117 0-.214-1.385-.214-3.077zm28.28 5.197V51.173l-2.846-.684c-1.566-.375-2.913-.616-2.995-.535-.082.083.049.7.278 1.372.243.694.375 3.89.312 7.395l-.113 6.173-3.112-7.845-3.113-7.845-2.668-.121-2.667-.118v23.917l2.811.283c1.546.156 2.908.185 3.027.068.117-.118 0-.59-.23-1.05-.495-.925-.638-13.603-.146-13.113.166.166 1.611 3.577 3.215 7.584l2.915 7.286 2.256.478c1.241.263 2.443.504 2.67.535.268.05.414-4.153.414-11.861zm-39.082.735c.701.375.782.322.592-.405-.136-.53.068-1.053.557-1.425.746-.565.741-.587-.132-.6-.499 0-1.09-.336-1.313-.736-.386-.688-.42-.688-.685 0-.15.4-.652.723-1.11.723-.727 0-.76.087-.268.683.312.375.502 1.063.424 1.528-.122.719-.049.767.49.322.464-.385.852-.41 1.445-.092zm46.581.092c.537.444.612.395.49-.322-.078-.463.112-1.153.424-1.529.496-.597.458-.682-.283-.682-.515 0-.963-.361-1.14-.923l-.294-.922-.34.922c-.215.578-.693.928-1.284.936-.903 0-.91.049-.166.6.49.37.695.895.556 1.425-.19.724-.107.779.593.405.593-.317.982-.293 1.445.093z" fill="#ff3a00"/></svg>